<?xml version="1.0" standalone="no"?>
<!DOCTYPE svg PUBLIC "-//W3C//DTD SVG 20010904//EN"
 "http://www.w3.org/TR/2001/REC-SVG-20010904/DTD/svg10.dtd">
<svg version="1.0" xmlns="http://www.w3.org/2000/svg"
 width="640.000000pt" height="640.000000pt" viewBox="0 0 640.000000 640.000000"
 preserveAspectRatio="xMidYMid meet">
<metadata>
Created by potrace 1.14, written by Peter Selinger 2001-2017
</metadata>
<g transform="translate(0.000000,640.000000) scale(0.100000,-0.100000)"
fill="#000000" stroke="none">
<path d="M3139 5756 c-3 -3 -14 -7 -25 -9 -40 -6 -118 -53 -152 -92 -41 -48
-68 -105 -77 -163 -8 -52 -10 -201 -3 -208 3 -2 2 -21 -2 -42 -3 -20 -3 -48 0
-62 4 -14 4 -34 0 -44 -3 -11 -3 -39 0 -63 4 -23 4 -43 1 -43 -5 0 -6 -89 -1
-110 0 -3 1 -48 0 -100 -1 -226 -1 -446 0 -455 2 -6 2 -14 1 -20 -1 -5 -2 -62
-1 -125 0 -63 1 -122 1 -130 -1 -8 -1 -49 0 -90 0 -100 0 -89 -1 -184 -1 -45
0 -87 1 -92 1 -5 1 -13 0 -19 -1 -5 -2 -62 -1 -125 0 -63 1 -121 1 -127 -1
-41 -2 -141 -1 -223 0 -52 0 -186 -1 -298 -1 -112 1 -205 4 -208 2 -2 1 -21
-3 -42 -3 -20 -3 -48 0 -62 4 -14 4 -34 0 -44 -3 -11 -3 -39 0 -63 4 -23 4
-43 1 -43 -5 0 -6 -89 -1 -110 0 -3 1 -48 0 -100 -1 -226 -1 -446 0 -455 2 -6
2 -12 1 -15 -7 -17 -5 -110 2 -110 5 0 5 -4 2 -10 -3 -5 -5 -33 -5 -62 0 -29
1 -61 1 -70 -1 -64 -1 -156 -2 -233 0 -140 0 -289 1 -295 0 -3 3 -32 5 -65 6
-98 24 -141 86 -206 78 -81 185 -114 290 -89 72 17 115 43 167 96 61 65 83
116 88 204 5 75 7 427 4 445 -1 6 -2 12 -1 15 7 17 5 110 -2 110 -5 0 -5 4 -2
10 3 5 5 33 5 62 -1 58 -1 62 0 146 0 31 0 100 0 152 0 52 0 186 1 298 1 112
-1 205 -3 208 -3 2 -2 24 2 48 3 24 3 52 0 62 -4 11 -4 28 0 38 3 11 3 39 0
63 -4 23 -4 43 -1 43 5 0 6 89 1 110 0 3 -1 48 0 100 1 226 1 446 0 455 -2 6
-2 12 -1 15 7 17 5 110 -2 110 -5 0 -5 4 -2 10 3 5 5 33 5 62 0 29 -1 62 0 73
0 11 0 54 -1 95 0 100 0 89 1 184 1 45 0 87 -1 92 -1 5 -1 11 0 14 7 17 5 110
-2 110 -5 0 -5 4 -2 10 3 5 5 33 5 62 -1 58 -1 62 0 146 0 31 0 100 0 152 0
52 0 186 1 298 1 112 -1 205 -4 208 -2 2 -1 21 3 42 3 20 3 48 0 62 -4 14 -4
34 0 44 3 11 3 39 0 63 -4 23 -4 43 -1 43 5 0 6 97 1 108 0 1 -1 43 -1 94 -1
102 -19 164 -64 223 -33 44 -103 93 -157 109 -45 13 -150 21 -159 12z"/>
<path d="M5035 5109 c-76 -22 -165 -93 -202 -163 -20 -40 -43 -151 -33 -166 4
-7 4 -27 0 -45 -4 -18 -4 -38 0 -45 4 -7 4 -26 1 -44 -4 -17 -4 -44 -1 -61 3
-16 3 -52 0 -80 -3 -27 -3 -74 0 -103 3 -29 4 -55 2 -57 -8 -8 -7 -105 1 -105
5 0 5 -4 2 -10 -3 -5 -5 -33 -5 -62 0 -29 1 -62 0 -73 0 -11 0 -54 1 -95 0
-100 0 -89 -1 -183 -1 -46 0 -88 1 -93 1 -5 1 -11 0 -14 -7 -17 -5 -110 2
-110 5 0 5 -4 2 -10 -3 -5 -5 -33 -5 -62 0 -29 1 -62 0 -73 0 -11 0 -54 1 -95
0 -100 0 -89 -1 -184 -1 -45 0 -87 1 -92 1 -5 1 -13 0 -19 -1 -5 -2 -62 -1
-125 0 -63 1 -122 1 -130 -1 -8 -1 -49 0 -90 0 -100 0 -89 -1 -184 -1 -45 0
-87 1 -92 1 -5 1 -11 0 -14 -7 -17 -5 -110 2 -110 5 0 5 -4 2 -10 -3 -5 -5
-33 -5 -62 0 -29 1 -62 0 -73 0 -11 0 -54 1 -95 0 -100 0 -89 -1 -183 -1 -46
0 -88 1 -93 1 -5 1 -11 0 -14 -5 -13 -5 -110 -1 -110 3 0 5 -37 6 -83 1 -97
25 -157 88 -221 54 -56 119 -86 192 -92 207 -15 356 132 354 348 0 40 0 81 -1
91 0 9 0 37 0 62 0 25 0 52 0 60 0 8 0 53 1 99 1 45 0 87 -1 92 -1 5 -1 11 0
14 7 17 5 110 -2 110 -5 0 -5 4 -2 10 3 5 5 33 5 62 0 29 -1 62 0 73 0 11 0
54 -1 95 0 100 0 89 1 184 1 45 0 87 -1 92 -1 5 -1 11 0 14 7 17 5 110 -2 110
-5 0 -5 4 -2 10 3 5 5 33 5 62 0 29 -1 62 0 73 0 11 0 54 -1 95 0 100 0 89 1
184 1 45 0 87 -1 92 -1 5 -1 11 0 14 7 17 5 110 -2 110 -5 0 -5 4 -2 10 3 5 5
33 5 62 0 29 -1 62 0 73 0 11 0 54 -1 95 0 100 0 89 1 183 1 46 0 88 -1 93 -1
5 -1 11 0 14 7 17 5 110 -2 110 -5 0 -5 4 -2 10 3 5 5 33 5 62 0 29 -1 62 0
73 0 11 0 54 -1 95 0 100 0 89 1 184 1 45 0 87 -1 92 -1 5 -1 11 0 14 5 13 5
110 1 110 -3 0 -5 37 -5 83 -1 65 -6 92 -25 132 -37 78 -122 152 -200 173 -32
8 -147 9 -175 1z"/>
<path d="M2179 4795 c-3 -2 -14 -6 -25 -8 -40 -6 -118 -53 -152 -92 -61 -71
-82 -135 -82 -257 0 -35 0 -72 0 -83 0 -82 1 -108 6 -116 3 -5 2 -9 -3 -9 -8
0 -9 -97 -1 -105 2 -3 1 -30 -2 -60 -3 -31 -3 -58 1 -60 3 -3 3 -22 -1 -42 -3
-21 -3 -49 0 -63 4 -14 4 -34 0 -44 -3 -11 -3 -39 0 -63 4 -23 4 -43 1 -43 -7
0 -6 -98 1 -105 2 -3 1 -30 -2 -60 -3 -31 -2 -58 2 -61 5 -3 6 -9 4 -13 -3 -4
-5 -23 -6 -42 -1 -56 -2 -153 -1 -166 1 -23 1 -156 0 -223 0 -36 1 -69 2 -75
1 -5 1 -14 0 -19 -1 -6 -2 -38 -1 -73 1 -35 1 -71 1 -80 -2 -168 -2 -381 -1
-388 1 -6 2 -12 1 -15 -5 -13 -5 -110 -1 -110 3 0 4 -30 3 -67 -1 -38 -2 -68
-3 -68 -1 0 -2 -24 -3 -53 -1 -28 0 -52 4 -52 3 0 2 -25 -1 -55 -3 -31 -4 -57
-2 -59 2 -3 5 -31 6 -64 8 -158 133 -288 288 -297 75 -5 126 8 193 50 78 49
129 121 150 210 9 38 12 135 4 135 -3 0 -3 20 1 43 3 24 3 52 0 63 -4 10 -4
30 0 44 3 14 3 42 0 63 -4 20 -4 39 -1 42 4 2 4 29 1 60 -3 30 -4 57 -2 60 7
7 8 105 1 105 -3 0 -3 20 1 43 3 24 3 52 0 63 -4 10 -4 30 0 44 3 14 3 42 0
63 -4 20 -4 39 -1 42 4 2 4 29 1 60 -3 30 -4 57 -2 60 7 7 8 105 1 105 -3 0
-3 20 1 43 3 24 3 52 0 63 -4 10 -4 30 0 44 3 14 3 42 0 63 -4 20 -4 39 -1 42
4 2 4 29 1 60 -3 30 -4 57 -2 60 6 6 8 105 2 105 -3 0 -4 30 -3 67 1 38 2 68
3 68 1 0 2 24 3 53 1 28 -2 52 -6 52 -5 0 -6 4 -3 8 4 7 7 61 6 115 -1 9 -1
37 -1 62 0 25 0 52 0 60 0 8 0 35 0 60 0 47 1 67 2 88 1 19 0 139 -2 172 0 17
-1 37 0 45 1 8 1 35 0 60 -1 25 -1 52 0 60 18 220 -104 375 -304 386 -39 3
-74 2 -76 -1z"/>
<path d="M4060 4463 c-115 -40 -199 -136 -215 -248 -3 -22 -8 -46 -10 -52 -2
-7 -1 -13 4 -13 4 0 5 -20 1 -45 -4 -24 -4 -49 0 -56 4 -6 4 -25 1 -43 -4 -17
-4 -44 -1 -61 3 -16 3 -52 0 -80 -3 -27 -3 -74 0 -103 3 -29 4 -55 2 -57 -7
-7 -8 -105 -1 -105 3 0 3 -20 -1 -43 -3 -24 -3 -52 0 -63 4 -10 4 -30 0 -44
-3 -14 -3 -42 0 -63 4 -20 4 -39 1 -42 -4 -2 -4 -29 -1 -60 3 -30 4 -57 2 -60
-7 -7 -8 -105 -1 -105 3 0 3 -20 -1 -43 -3 -24 -3 -52 0 -63 4 -10 4 -30 0
-44 -3 -14 -3 -42 0 -63 4 -20 4 -39 1 -42 -4 -2 -4 -29 -1 -60 3 -30 4 -57 2
-60 -8 -8 -7 -105 1 -105 5 0 6 -4 2 -10 -8 -12 -8 -296 -1 -309 4 -5 2 -12
-3 -16 -6 -3 -8 -11 -6 -18 3 -7 6 -35 8 -63 6 -79 37 -151 88 -205 125 -131
321 -130 451 2 77 78 113 185 97 286 -1 5 0 13 1 18 1 6 1 42 0 80 -2 81 -1
70 0 179 1 45 0 87 -1 92 -1 5 -1 11 0 14 5 13 5 110 1 110 -3 0 -4 30 -3 67
1 38 2 68 3 68 1 0 2 24 3 53 1 28 -2 52 -6 52 -5 0 -6 4 -3 8 4 7 7 61 6 115
-1 9 -1 37 -1 62 0 25 0 52 0 60 0 8 0 35 0 60 0 25 0 52 0 60 0 8 0 62 0 120
0 58 0 112 0 120 0 8 0 35 0 60 0 25 0 52 0 60 0 8 0 53 1 99 1 45 0 87 -1 92
-1 5 -1 11 0 14 5 13 5 110 1 110 -3 0 -5 33 -4 74 2 132 -59 235 -172 290
-72 35 -174 43 -244 19z"/>
<path d="M1178 3822 c-136 -49 -214 -158 -217 -302 -1 -80 -2 -583 -1 -590 0
-3 3 -32 5 -65 6 -98 24 -141 86 -206 57 -59 121 -89 201 -94 75 -5 126 8 193
50 78 49 129 121 150 210 8 36 12 135 5 135 -3 0 -5 29 -5 65 0 36 4 65 8 65
5 0 6 4 3 8 -5 8 -7 99 -6 222 1 36 0 70 -1 75 -1 6 -1 14 1 20 3 15 0 138 -4
166 -6 43 -41 111 -79 154 -76 88 -228 126 -339 87z"/>
<path d="M235 3509 c-82 -23 -162 -90 -206 -171 -34 -64 -34 -184 1 -259 35
-75 124 -167 165 -170 2 0 17 -6 32 -14 41 -22 157 -13 218 16 64 30 140 106
168 167 31 68 30 189 -2 254 -37 77 -128 159 -195 175 -39 9 -150 11 -181 2z"/>
<path d="M5972 3500 c-74 -27 -142 -87 -177 -156 -100 -198 44 -446 268 -460
208 -14 373 177 327 378 -25 109 -128 223 -222 244 -64 15 -145 13 -196 -6z"/>
</g>
</svg>
